<svg xmlns="http://www.w3.org/2000/svg" width="157.973" height="152.134" viewBox="0 0 157.973 152.134">
  <g id="Ice_Breaker_Maker_Logo" data-name="Ice Breaker Maker Logo" transform="translate(0.812 0.87)">
    <g id="Ice_Pic" data-name="Ice Pic" transform="translate(2325.443 -1926.765) rotate(-41)">
      <path id="Path_2" data-name="Path 2" d="M-2969.163,22.849s-1.82,18.5-6.8,25.663-4.565,0-4.565,0,3.663-29.112-6.4-30.32-69.66-11.556-69.66-11.556-10.912-10.058,0-11.963,73.858,11.963,73.858,11.963l-7.74-29.416,27.387,5.866-4.135,26.558s9.938,7.8-1.944,13.206" transform="translate(0)" fill="#958787" stroke="#2c2b2b" stroke-width="1"/>
      <path id="Path_3" data-name="Path 3" d="M-3044.28,2.017s-2.481,6.57-2.231,11.388" transform="translate(61.579 4.891)" fill="#fff" stroke="#2c2b2b" stroke-width="1"/>
    </g>
    <g id="Rectangle_64" data-name="Rectangle 64" transform="translate(68.161 67.265)" fill="#a9d7f7" stroke="#fcf7f7" stroke-width="1">
      <rect width="89" height="84" rx="10" stroke="none"/>
      <rect x="0.5" y="0.5" width="88" height="83" rx="9.5" fill="none"/>
    </g>
    <line id="Line_11" data-name="Line 11" x1="16" y2="26" transform="translate(102.661 69.765)" fill="none" stroke="#faf0f0" stroke-width="1"/>
    <line id="Line_12" data-name="Line 12" x1="16" y1="16" transform="translate(102.661 95.765)" fill="none" stroke="#f8f0f0" stroke-width="1"/>
    <line id="Line_13" data-name="Line 13" y1="22" x2="8" transform="translate(110.661 111.765)" fill="none" stroke="#f8f2f2" stroke-width="1"/>
  </g>
</svg>
